<?xml-stylesheet href="../bootstrap/css/style.css"  ?>
<svg width="1120" height="830" viewBox="0 0 1120 830" fill="none" xmlns="http://www.w3.org/2000/svg">
<g id="data 1">
<g clip-path="url(#clip0)">
<path id="Vector" d="M975.579 829.801C1055.34 829.801 1120 821.41 1120 811.059C1120 800.708 1055.34 792.317 975.579 792.317C895.818 792.317 831.158 800.708 831.158 811.059C831.158 821.41 895.818 829.801 975.579 829.801Z" fill="#3F3D56"/>
<path id="Vector_2" d="M436 27.5H0V299.5H436V27.5Z" fill="#F2F2F2"/>
<path id="Vector_3" d="M463.5 1H27.5V273H463.5V1Z" stroke="#3F3D56" stroke-width="2" stroke-miterlimit="10"/>
<g id="circle1">
<path id="Vector_4" d="M312.468 202.968C325.614 189.822 334.567 173.073 338.194 154.838C341.821 136.604 339.959 117.704 332.845 100.528C325.73 83.3515 313.682 68.6707 298.224 58.3419C282.765 48.013 264.591 42.5 246 42.5V136.5L312.468 202.968Z" fill="#3F3D56"/>
<path id="Vector_5" d="M246 42.5C225.107 42.5025 204.81 49.4648 188.314 62.2873C171.819 75.1099 160.065 93.062 154.908 113.309C149.752 133.556 151.487 154.943 159.839 174.094C168.191 193.245 182.685 209.068 201.032 219.064L246 136.5V42.5Z" fill="#EC0000"/>
<path id="Vector_6" d="M312.468 202.968L246 136.5L201.032 219.064C218.857 228.762 239.341 232.435 259.425 229.534C279.509 226.633 298.116 217.314 312.468 202.968Z" fill="#575A89"/>
</g>
<path id="Vector_7" d="M62 216.5H44V234.5H62V216.5Z" fill="#EC0000"/>
<path id="Vector_8" d="M88 216.5H70V234.5H88V216.5Z" fill="#3F3D56"/>
<path id="Vector_9" d="M114 216.5H96V234.5H114V216.5Z" fill="#575A89"/>
<path id="Vector_10" d="M429 220.5H355V223.5H429V220.5Z" fill="#3F3D56"/>
<path id="Vector_11" d="M429 229.5H355V232.5H429V229.5Z" fill="#3F3D56"/>
<path id="Vector_12" d="M429 238.5H355V241.5H429V238.5Z" fill="#3F3D56"/>
<path id="Vector_13" d="M385 406.5H137V678.5H385V406.5Z" fill="#F2F2F2"/>
<path id="Vector_14" d="M410 380.5H162V652.5H410V380.5Z" stroke="#3F3D56" stroke-width="2" stroke-miterlimit="10"/>
<path id="Vector_15" d="M188.371 621.814H175V635.186H188.371V621.814Z" fill="#EC0000"/>
<path id="Vector_16" d="M207.686 621.814H194.314V635.186H207.686V621.814Z" fill="#3F3D56"/>
<path id="Vector_17" d="M227 621.814H213.629V635.186H227V621.814Z" fill="#575A89"/>
<path id="Vector_18" d="M377 627.622H325V629.73H377V627.622Z" fill="#3F3D56"/>
<path id="Vector_19" d="M377 633.946H325V636.054H377V633.946Z" fill="#3F3D56"/>
<path id="Vector_20" d="M377 640.27H325V642.378H377V640.27Z" fill="#3F3D56"/>
<g id="circle2">
<path id="Vector_21" d="M286 428.5V450.5C299.054 450.5 311.814 454.371 322.668 461.623C333.521 468.875 341.981 479.183 346.976 491.243C351.971 503.303 353.278 516.573 350.732 529.376C348.185 542.179 341.899 553.939 332.669 563.169L348.225 578.725C360.532 566.418 368.914 550.738 372.309 533.668C375.705 516.598 373.962 498.904 367.301 482.824C360.641 466.744 349.362 453 334.89 443.331C320.419 433.661 303.405 428.5 286 428.5V428.5Z" fill="#3F3D56"/>
<path id="Vector_22" d="M348.225 578.725L332.669 563.169C321.385 574.455 306.393 581.269 290.47 582.349C274.548 583.428 258.773 578.7 246.069 569.041L232.753 586.561C249.695 599.438 270.728 605.739 291.959 604.298C313.189 602.857 333.179 593.772 348.225 578.725Z" fill="#575A89"/>
<path id="Vector_23" d="M220 516.5C220 498.996 226.954 482.208 239.331 469.831C251.708 457.454 268.496 450.5 286 450.5V428.5C267.578 428.5 249.621 434.281 234.659 445.028C219.697 455.776 208.486 470.948 202.605 488.406C196.724 505.864 196.47 524.727 201.879 542.337C207.287 559.947 218.086 575.415 232.753 586.561L246.069 569.041C237.961 562.891 231.388 554.947 226.865 545.831C222.343 536.716 219.993 526.676 220 516.5V516.5Z" fill="#EC0000"/>
</g>
<path id="Vector_24" d="M931.624 140.993C931.624 140.993 927.544 171.304 938.036 174.801C948.528 178.299 945.614 205.112 945.614 205.112L914.138 229.011L886.159 231.342L879.164 195.203L883.244 185.876C883.244 185.876 898.982 167.224 887.907 147.988C876.832 128.752 931.624 140.993 931.624 140.993Z" fill="#FFB9B9"/>
<path id="Vector_25" opacity="0.1" d="M931.624 140.993C931.624 140.993 927.544 171.304 938.036 174.801C948.528 178.299 945.614 205.112 945.614 205.112L914.138 229.011L886.159 231.342L879.164 195.203L883.244 185.876C883.244 185.876 898.982 167.224 887.907 147.988C876.832 128.752 931.624 140.993 931.624 140.993Z" fill="black"/>
<path id="Vector_26" d="M902.48 377.066L865.757 463.335C865.757 463.335 837.195 447.014 820.291 448.763C803.387 450.511 782.403 430.11 782.403 430.11L803.387 328.686L842.441 220.85L896.651 255.241L902.48 377.066Z" fill="#575A89"/>
<path id="Vector_27" opacity="0.1" d="M902.48 377.066L865.757 463.335C865.757 463.335 837.195 447.014 820.291 448.763C803.387 450.511 782.403 430.11 782.403 430.11L803.387 328.686L842.441 220.85L896.651 255.241L902.48 377.066Z" fill="black"/>
<path id="Vector_28" d="M960.186 743.708V771.687H933.956L938.036 739.045L960.186 743.708Z" fill="#575A89"/>
<path id="Vector_29" d="M1028.39 695.328L1047.62 706.986L1033.63 739.045L1019.06 737.296L1005.07 717.478L1028.39 695.328Z" fill="#575A89"/>
<path id="Vector_30" d="M965.432 368.906L999.823 449.928C999.823 449.928 987.582 539.694 988.165 547.272C988.748 554.85 989.331 557.764 986.417 564.176C983.502 570.588 982.336 574.668 984.085 582.246C985.834 589.824 986.417 592.738 985.251 595.653C984.085 598.567 975.925 718.644 971.844 726.804C967.764 734.965 974.176 748.371 970.096 749.537C966.015 750.703 935.705 747.789 933.956 740.794C932.207 733.799 939.785 716.895 935.705 711.649C931.624 706.403 936.288 517.544 930.459 504.721C924.63 491.897 860.511 480.239 860.511 480.239C860.511 480.239 854.682 442.934 858.179 437.105C861.677 431.276 866.34 394.553 866.34 394.553L965.432 368.906Z" fill="#2F2E41"/>
<path id="Vector_31" d="M931.624 767.024C931.624 767.024 947.946 747.788 961.935 767.024C961.935 767.024 963.101 789.757 973.01 794.42C982.919 799.083 978.256 817.736 964.267 818.319C950.277 818.902 932.207 821.233 931.624 813.656C931.041 806.078 933.956 801.415 928.71 799.083C923.464 796.752 928.71 783.345 928.71 783.345L931.624 767.024Z" fill="#2F2E41"/>
<path id="Vector_32" d="M933.373 488.4C933.373 488.4 932.79 530.368 928.71 536.197C924.63 542.026 922.298 545.523 924.63 551.935C926.961 558.347 930.459 570.005 928.71 572.337C926.961 574.668 930.459 586.909 930.459 586.909C930.459 586.909 975.342 608.476 996.326 653.359C996.326 653.359 1017.89 688.916 1024.3 689.499C1030.72 690.082 1038.29 685.419 1034.8 698.825C1031.3 712.232 1017.89 729.719 1007.98 727.97C998.075 726.221 990.497 709.317 990.497 709.317C990.497 709.317 912.972 630.626 904.811 628.295C896.651 625.963 873.335 607.31 869.254 595.653C865.174 583.995 856.431 486.651 860.511 480.239C864.591 473.827 879.747 465.084 879.747 465.084L933.373 488.4Z" fill="#2F2E41"/>
<path id="Vector_33" d="M1034.21 692.996C1034.21 692.996 1070.35 694.162 1070.94 702.905C1071.52 711.649 1055.78 763.527 1058.11 775.768C1060.44 788.008 1040.04 815.987 1026.64 810.158C1013.23 804.329 1023.72 774.019 1023.72 774.019C1023.72 774.019 1010.32 732.633 1012.65 732.05C1014.98 731.467 1038.29 724.473 1037.13 717.478C1035.96 710.483 1034.21 692.996 1034.21 692.996Z" fill="#2F2E41"/>
<path id="Vector_34" d="M940.951 191.705C940.951 191.705 921.132 212.69 906.56 209.192C891.987 205.695 884.41 180.63 884.41 180.63L858.18 175.967C858.18 175.967 839.527 258.738 839.527 266.899C839.527 275.059 858.18 363.077 858.18 378.815C858.18 394.553 843.024 403.88 866.34 403.297C889.656 402.714 878.581 395.136 912.389 394.553C946.197 393.97 951.443 401.548 958.438 389.307C963.208 381.321 969.097 374.058 975.925 367.74L963.684 324.606L961.935 202.78C961.935 202.78 946.991 173.635 940.182 175.967C940.182 175.967 943.865 188.791 940.951 191.705Z" fill="#EC0000"/>
<path id="Vector_35" d="M933.771 170.812C933.771 170.812 964.85 174.218 973.593 180.63C982.336 187.042 1006.82 191.705 1006.24 196.368C1005.65 201.032 977.673 267.482 977.673 267.482C977.673 267.482 964.85 319.943 975.925 332.183C987 344.424 1028.39 477.907 1021.39 488.982C1014.4 500.058 992.246 455.174 992.246 455.174C992.246 455.174 962.518 358.997 946.197 342.675C929.876 326.354 928.71 238.337 928.71 234.257C928.71 230.176 933.771 170.812 933.771 170.812Z" fill="#575A89"/>
<path id="Vector_36" d="M888.313 177.572C888.313 177.572 850.019 163.143 836.612 168.972C823.206 174.801 815.045 175.967 815.045 175.967L810.382 233.091C810.382 233.091 808.633 315.279 793.478 335.098C778.323 354.916 768.413 437.688 770.745 445.848C773.077 454.009 766.665 467.998 776.574 464.501C786.483 461.003 813.879 380.564 813.879 380.564C813.879 380.564 813.879 334.515 830.201 321.691C846.522 308.867 873.335 255.824 874.501 243C875.666 230.176 886.741 194.62 886.741 194.62L888.313 177.572Z" fill="#575A89"/>
<path id="Vector_37" d="M1019.64 361.328C1019.64 361.328 1002.15 393.97 999.823 399.799C997.492 405.628 981.171 445.265 957.855 436.522C934.539 427.778 980.588 385.227 980.588 385.227L991.08 349.67C991.08 349.67 1018.48 343.841 1019.64 361.328Z" fill="#FFB9B9"/>
<path id="Vector_38" d="M820.874 175.967H815.045C815.045 175.967 809.216 171.304 802.221 174.218C795.227 177.133 778.906 173.053 778.906 174.801C778.906 176.55 760.836 169.555 753.258 173.053C745.68 176.55 718.284 177.716 718.284 177.716C718.284 177.716 707.209 205.695 714.787 210.941C722.365 216.187 733.44 212.107 738.686 216.187C743.932 220.267 753.841 215.604 757.338 220.85C760.836 226.096 773.66 235.423 776.574 229.594C779.488 223.765 773.659 218.519 785.9 224.93C798.141 231.342 817.377 231.342 817.377 231.342L820.874 175.967Z" fill="#575A89"/>
<g id="head">
<path id="Vector_39" d="M904.52 172.178C924.479 172.178 940.659 155.998 940.659 136.039C940.659 116.079 924.479 99.8991 904.52 99.8991C884.56 99.8991 868.38 116.079 868.38 136.039C868.38 155.998 884.56 172.178 904.52 172.178Z" fill="#FFB9B9"/>
<path id="Vector_40" d="M907.778 109.337C902.887 108.207 897.811 109.459 892.857 110.271C887.904 111.083 882.445 111.35 878.256 108.587C875.161 106.546 873.259 103.169 871.472 99.9213C870.727 98.7614 870.23 97.4595 870.013 96.0978C869.803 93.6958 871.331 91.5042 872.954 89.7206C880.491 81.4358 891.505 76.9013 902.612 75.4609C911.742 74.2769 921.262 75.0698 929.693 78.7679C938.125 82.466 945.373 89.2383 948.688 97.8277C950.214 102.224 951.168 106.799 951.524 111.439C952.025 114.853 952.09 118.316 951.716 121.747C951.269 124.289 950.601 126.788 949.718 129.214L944.227 145.795C943.832 147.362 943.095 148.822 942.068 150.069C941.54 150.68 940.829 151.104 940.04 151.277C939.251 151.449 938.428 151.362 937.693 151.028C938.133 149.227 938.2 147.355 937.89 145.527C937.718 144.616 937.278 143.778 936.625 143.12C935.972 142.461 935.137 142.014 934.228 141.834C932.204 141.619 930.475 143.188 928.555 143.864C927.632 144.138 926.662 144.217 925.706 144.098C924.75 143.978 923.829 143.662 923.002 143.17C922.174 142.677 921.458 142.019 920.897 141.235C920.336 140.452 919.944 139.561 919.744 138.619C919.441 136.724 919.95 134.694 919.231 132.914C918.39 130.828 916.157 129.736 914.48 128.237C912.95 126.825 911.854 125.005 911.323 122.992C910.791 120.978 910.846 118.855 911.479 116.871C911.928 115.491 913.196 114.864 912.943 113.279C912.61 111.199 909.544 109.745 907.778 109.337Z" fill="#2F2E41"/>
</g>
<path id="Vector_41" d="M755 236.5H507V508.5H755V236.5Z" fill="#F2F2F2"/>
<path id="Vector_42" d="M780 210.5H532V482.5H780V210.5Z" stroke="#3F3D56" stroke-width="2" stroke-miterlimit="10"/>
<path id="Vector_43" d="M556 227.5V435.5H757" stroke="#3F3D56" stroke-width="2" stroke-miterlimit="10"/>
<g id="chart">
<path id="Vector_44" d="M612 362.5H567V434.5H612V362.5Z" fill="#575A89"/>
<path id="Vector_45" d="M677 313.5H632V434.5H677V313.5Z" fill="#3F3D56"/>
<path id="Vector_46" d="M742 256.5H697V434.5H742V256.5Z" fill="#EC0000"/>
</g>
<g id="">
<path id="Vector_44" d="M612 362.5H567V434.5H612V362.5Z" fill="#575A89"/>
<path id="Vector_45" d="M677 313.5H632V434.5H677V313.5Z" fill="#3F3D56"/>
<path id="Vector_46" d="M742 256.5H697V434.5H742V256.5Z" fill="#EC0000"/>
</g>
<path id="Vector_47" d="M566.371 451.814H553V465.186H566.371V451.814Z" fill="#EC0000"/>
<path id="Vector_48" d="M585.686 451.814H572.314V465.186H585.686V451.814Z" fill="#3F3D56"/>
<path id="Vector_49" d="M605 451.814H591.629V465.186H605V451.814Z" fill="#575A89"/>
<path id="Vector_50" d="M755 457.622H703V459.73H755V457.622Z" fill="#3F3D56"/>
<path id="Vector_51" d="M755 463.946H703V466.054H755V463.946Z" fill="#3F3D56"/>
<path id="Vector_52" d="M755 470.27H703V472.378H755V470.27Z" fill="#3F3D56"/>
<path id="Vector_53" d="M724.308 177.682C734.936 178.144 742.833 187.783 741.684 198.359C740.642 207.941 736.8 219.864 724.696 224.444C703.129 232.604 704.295 186.555 708.375 184.807C711.095 183.641 715.37 177.294 724.308 177.682Z" fill="#FFB9B9"/>
<path id="Vector_54" d="M999.823 193.254L1006.24 196.368C1006.24 196.368 1020.22 224.93 1020.81 229.011C1021.39 233.091 1030.72 248.246 1027.22 252.327C1023.72 256.407 1018.48 266.899 1021.97 270.979C1025.47 275.059 1033.63 291.381 1033.63 297.21C1033.63 303.039 1024.89 318.777 1030.72 320.525C1036.55 322.274 1034.8 345.007 1033.63 346.756C1032.47 348.504 1017.31 377.066 1017.31 377.066C1017.31 377.066 1014.4 344.424 985.834 357.831C985.834 357.831 983.502 341.51 985.834 340.344C988.165 339.178 993.994 332.183 989.331 331.018C984.668 329.852 978.256 315.862 979.422 314.114C980.588 312.365 983.502 310.033 980.588 308.285C977.673 306.536 975.342 296.627 975.925 294.878C976.507 293.129 969.513 284.969 969.513 284.969L999.823 193.254Z" fill="#575A89"/>
</g>
</g>
<defs>
<clipPath id="clip0">
<rect width="1120" height="829.801" fill="white"/>
</clipPath>
</defs>
</svg>
